<?xml version="1.0" encoding="utf-8"?>
<!-- Generator: Adobe Illustrator 26.0.0, SVG Export Plug-In . SVG Version: 6.00 Build 0)  -->
<svg version="1.1" id="Capa_1" xmlns="http://www.w3.org/2000/svg" xmlns:xlink="http://www.w3.org/1999/xlink" x="0px" y="0px"
	 viewBox="0 0 100 80" style="enable-background:new 0 0 100 80;" xml:space="preserve">
<style type="text/css">
	.st0{fill:#37E23B;}
	.st1{fill-rule:evenodd;clip-rule:evenodd;fill:#37E23B;}
</style>
<g>
	<path class="st0" d="M13.06,69.01c-7.16,0-0.12-7.27-0.12-7.27L31.2,41.68c1.78-1.95,5.2-4.91,7.21-3.28
		c2,1.63,4.68,4.94,6.54,6.81l3.78,3.78c2.02,1.79,3.58,0,3.58,0l3.86-3.81c1.88-1.85,4.57-5.08,6.58-6.59
		c2.01-1.5,5.42,1.36,7.19,3.31l18.15,20.05c7.16,7.04,0.12,7.04,0.12,7.04L13.06,69.01L13.06,69.01z M16.15,52.5
		c-1.78,1.95-4.37,5.35-6.12,7.32c-1.98,2.22-4.24,3.91-4.24,0.02l0.09-39.14c0.01-2.64-0.07-7.67,1.74-6.77
		c0.67,0.34,1.59,1.03,2.83,2.28L25.22,28.3c2.04,1.67,4.92,3.71,5.86,5.08c0.59,0.86,0.87,1.86,0.01,2.72L16.15,52.5z M55.98,38.59
		c-2.04,1.67-4.26,4.05-5.39,4.05c-1.13,0-3.39-2.32-5.44-3.98L13,12.59c-2.05-1.66-5.58-5.01-3.82-5.9
		c1.27-0.65,3.48-0.64,3.48-0.64H88.2c6.8,0,3.34,3.36,3.34,3.36L55.98,38.59z M91.02,59.82c-1.76-1.97-4.35-5.37-6.13-7.32
		L69.97,36.09c-0.86-0.86-0.59-1.86,0-2.72c0.94-1.36,3.82-3.4,5.86-5.07l11.08-9.06c2.04-1.67,4.73-4.4,6.53-5.31
		c1.8-0.9,1.72,4.13,1.73,6.77l0.1,39.14C95.26,63.73,93,62.04,91.02,59.82z"/>
</g>
</svg>
