<?xml version="1.0" encoding="utf-8"?>
<!-- Generator: Adobe Illustrator 26.0.0, SVG Export Plug-In . SVG Version: 6.00 Build 0)  -->
<svg version="1.1" id="Capa_1" xmlns="http://www.w3.org/2000/svg" xmlns:xlink="http://www.w3.org/1999/xlink" x="0px" y="0px"
	 viewBox="0 0 100 100" style="enable-background:new 0 0 100 100;" xml:space="preserve">
<style type="text/css">
	.st0{fill:#37E23B;}
	.st1{fill-rule:evenodd;clip-rule:evenodd;fill:#37E23B;}
</style>
<g>
	<g>
		<g>
			<path class="st0" d="M69.5,70.03h-5.65v-5.65h5.65V70.03z"/>
			<path class="st0" d="M52.55,70.03h5.65v-5.65h-5.65V70.03z"/>
			<path class="st0" d="M80.8,70.03h-5.65v-5.65h5.65V70.03z"/>
			<path class="st1" d="M24.29,41.77V27.64c0-10.92,8.86-19.78,19.78-19.78s19.78,8.86,19.78,19.78v14.13h8.48
				c4.68,0,8.48,3.8,8.48,8.48v3.11c6.45,1.31,11.3,7.01,11.3,13.85c0,6.84-4.85,12.54-11.3,13.85v3.11c0,4.68-3.8,8.48-8.48,8.48
				H15.81c-4.68,0-8.48-3.8-8.48-8.48V50.25c0-4.68,3.8-8.48,8.48-8.48H24.29z M29.94,27.64c0-7.8,6.33-14.13,14.13-14.13
				S58.2,19.84,58.2,27.64v14.13H29.94V27.64z M55.37,58.72c-4.68,0-8.48,3.8-8.48,8.48c0,4.68,3.8,8.48,8.48,8.48h22.6
				c4.68,0,8.48-3.8,8.48-8.48c0-4.68-3.8-8.48-8.48-8.48H55.37z"/>
		</g>
	</g>
</g>
</svg>
